# xmcd
#
# Track frame offsets:
#	150
#	20877
#	41947
#	66302
#	87738
#	112986
#	135569
#	155777
#	175140
#	195294
#	216180
#	239558
#	259200
#	278896
#
# Disc length: 4007 seconds
#
# Revision: 1
# Processed by: cddbd v1.5.2PL0 Copyright (c) Steve Scherf et al.
# Submitted via: EZCDAudioConverter 7.1.7.1
#
DISCID=d90fa50e
DTITLE=乔维怡 - 小乔流水 Dts-Es6.1
DYEAR=2010
DGENRE=World Pop
TTITLE0=我的太阳
TTITLE1=逝去的爱
TTITLE2=美人鱼之歌
TTITLE3=几度花落时
TTITLE4=月亮河
TTITLE5=泪的小雨
TTITLE6=你的眼神
TTITLE7=人鬼情未了
TTITLE8=心恋
TTITLE9=昨日重现
TTITLE10=落花流水
TTITLE11=恰似你的温柔
TTITLE12=难忘的初恋情人
TTITLE13=月光小夜曲
EXTD=
EXTT0=
EXTT1=
EXTT2=
EXTT3=
EXTT4=
EXTT5=
EXTT6=
EXTT7=
EXTT8=
EXTT9=
EXTT10=
EXTT11=
EXTT12=
EXTT13=
PLAYORDER=
